<?xml version="1.0" encoding="UTF-8" standalone="no"?>
<!-- Created with Inkscape (http://www.inkscape.org/) -->

<svg
   width="108px"
   height="108px"
   viewBox="0 0 135.46664 135.46664"
   version="1.1"
   id="svg1"
   xml:space="preserve"
   inkscape:version="1.3 (0e150ed6c4, 2023-07-21)"
   sodipodi:docname="logo.svg"
   xmlns:inkscape="http://www.inkscape.org/namespaces/inkscape"
   xmlns:sodipodi="http://sodipodi.sourceforge.net/DTD/sodipodi-0.dtd"
   xmlns="http://www.w3.org/2000/svg"
   xmlns:svg="http://www.w3.org/2000/svg"><sodipodi:namedview
     id="namedview1"
     pagecolor="#ffffff"
     bordercolor="#000000"
     borderopacity="0.25"
     inkscape:showpageshadow="2"
     inkscape:pageopacity="0.0"
     inkscape:pagecheckerboard="0"
     inkscape:deskcolor="#d1d1d1"
     inkscape:document-units="mm"
     inkscape:zoom="0.35355339"
     inkscape:cx="-66.468037"
     inkscape:cy="233.34524"
     inkscape:window-width="1920"
     inkscape:window-height="1009"
     inkscape:window-x="-8"
     inkscape:window-y="-8"
     inkscape:window-maximized="1"
     inkscape:current-layer="layer1" /><defs
     id="defs1" /><g
     inkscape:label="Layer 1"
     inkscape:groupmode="layer"
     id="layer1"
     transform="translate(659.83091,-374.75925)"><path
       d="m -541.29653,374.75925 h -101.60211 c -9.33453,0.0209 -16.89974,7.58658 -16.93227,16.93333 v 101.59999 c 0,9.31333 7.61847,16.93333 16.93227,16.93333 h 101.60211 c 9.31381,0 16.93227,-7.62 16.93227,-16.93333 V 391.69258 c 0,-9.31333 -7.61846,-16.93333 -16.93227,-16.93333"
       fill="#e44332"
       id="path19"
       style="fill:#1a1a1a;stroke-width:0.529167" /><g
       id="g21"
       transform="matrix(1.0561892,0,0,1.0561892,33.148086,-24.863417)"><path
         id="path17"
         style="fill:#00ff00;fill-opacity:1;stroke-width:0.855465"
         d="m -602.68099,468.77071 c -3.87187,-0.9946 -7.43209,-3.06242 -10.34144,-6.09221 -5.88797,-6.13172 -7.53595,-15.14251 -4.25452,-23.26415 0.65067,-1.61042 3.35489,-5.84447 3.85533,-6.03652 0.19315,-0.0741 1.514,1.0951 3.44994,3.0543 3.50141,3.54351 4.01352,3.82585 5.58914,3.07816 1.73323,-0.82246 1.69139,-0.52237 1.69226,-12.04652 8.6e-4,-11.16513 0.0111,-11.07021 -1.28909,-11.95147 -0.59976,-0.40652 -1.19131,-0.4297 -10.9546,-0.4297 -11.32746,0 -11.12024,-0.024 -11.98196,1.37043 -0.54189,0.8768 -0.57301,2.07002 -0.0738,2.82309 0.204,0.3078 1.592,1.79613 3.08434,3.30759 l 2.71345,2.74837 -1.20022,1.43895 c -4.68034,5.61217 -7.33761,12.54297 -7.62401,19.88627 -0.1371,3.51509 0.12895,5.93004 1.05477,9.58239 2.6301,10.37549 11.00815,19.27689 21.31328,22.64435 1.55957,0.50963 3.36845,0.96921 4.96715,1.28113 z" /><path
         style="fill:#006600;fill-opacity:1;stroke-width:0.529167"
         d="m -557.57205,449.36156 c -0.72148,0.009 -1.44066,0.20104 -2.08514,0.57619 -0.4636,0.27095 -19.233,11.16704 -32.4404,18.83296 v 11.39001 c 15.10245,-8.77982 40.50549,-23.544 41.39024,-24.0652 1.15979,-0.6748 1.22255,-2.74985 -0.0848,-3.50056 -1.299,-0.7465 -3.76618,-2.16379 -4.68137,-2.70785 -0.65337,-0.35945 -1.3771,-0.53428 -2.09858,-0.52555 z"
         id="path21" /><path
         style="fill:#00b200;fill-opacity:1;stroke-width:0.529167"
         d="m -557.57205,426.41826 c -0.72148,0.009 -1.44066,0.20106 -2.08514,0.57619 -0.4636,0.27094 -19.23301,11.16741 -32.4404,18.83348 v 11.38948 c 15.10245,-8.77982 40.50549,-23.54399 41.39024,-24.06519 1.15979,-0.6748 1.22255,-2.74986 -0.0848,-3.50057 -1.299,-0.7465 -3.76618,-2.16378 -4.68137,-2.70784 -0.65337,-0.35945 -1.3771,-0.53427 -2.09858,-0.52555 z"
         id="path20" /><path
         style="fill:#00ff00;fill-opacity:1;stroke-width:0.529167"
         d="m -557.57205,404.82475 c -0.72148,0.009 -1.44066,0.20104 -2.08514,0.57619 -0.4636,0.27094 -19.23301,11.16741 -32.4404,18.83347 v 11.38949 c 15.10245,-8.77982 40.50549,-23.544 41.39024,-24.0652 1.15979,-0.67478 1.22255,-2.74985 -0.0848,-3.50056 -1.299,-0.7465 -3.76618,-2.16379 -4.68137,-2.70785 -0.65337,-0.35946 -1.3771,-0.53427 -2.09858,-0.52554 z"
         id="path18" /></g></g></svg>
